<svg xmlns="http://www.w3.org/2000/svg" width="81.671" height="46.017" viewBox="0 0 81.671 46.017">
  <path id="android" d="M59.63,146.139a3.4,3.4,0,1,1,3.4-3.4,3.4,3.4,0,0,1-3.4,3.4m-37.59,0a3.4,3.4,0,1,1,3.4-3.4,3.4,3.4,0,0,1-3.4,3.4M60.85,125.654l6.8-11.772a1.414,1.414,0,0,0-2.449-1.416h0l-6.882,11.92a42.724,42.724,0,0,0-34.96,0l-6.882-11.92a1.414,1.414,0,0,0-2.449,1.414h0l6.8,11.773A40.131,40.131,0,0,0,0,157.776H81.671A40.135,40.135,0,0,0,60.85,125.654" transform="translate(0 -111.759)"/>
</svg>
