<svg id="apple-logo" xmlns="http://www.w3.org/2000/svg" width="65.956" height="80.901" viewBox="0 0 65.956 80.901">
  <g id="Group_62" data-name="Group 62" transform="translate(0)">
    <path id="Path_62" data-name="Path 62" d="M27.075,0h.576a17.324,17.324,0,0,1-4.362,13.055c-2.6,3.066-6.153,6.039-11.9,5.588a16.8,16.8,0,0,1,4.441-12.65A19.18,19.18,0,0,1,27.075,0Z" transform="translate(21.47)"/>
    <path id="Path_63" data-name="Path 63" d="M68.06,45.366v.16a47.07,47.07,0,0,1-6.736,12.984C58.756,62.045,55.608,66.8,49.988,66.8c-4.856,0-8.082-3.123-13.059-3.208-5.265-.085-8.16,2.611-12.974,3.29H22.314c-3.535-.512-6.387-3.311-8.466-5.833A51.106,51.106,0,0,1,2.1,31.65V28.03C2.477,19.213,6.761,12.044,12.456,8.57A17.482,17.482,0,0,1,24.193,5.852,29.527,29.527,0,0,1,29.945,7.5c1.673.643,3.766,1.783,5.748,1.723a13.8,13.8,0,0,0,4.032-1.233c3.965-1.432,7.851-3.073,12.974-2.3,6.156.931,10.526,3.666,13.226,7.887C60.717,16.89,56.6,21.884,57.3,30.414,57.928,38.162,62.432,42.7,68.06,45.366Z" transform="translate(-2.104 14.017)"/>
  </g>
</svg>
