<svg id="Ionic_Logo" xmlns="http://www.w3.org/2000/svg" width="80.953" height="80.949" viewBox="0 0 80.953 80.949">
  <path id="Path_65" data-name="Path 65" d="M92.695,222.5a18.445,18.445,0,1,0,18.445,18.445A18.445,18.445,0,0,0,92.695,222.5Z" transform="translate(-52.218 -200.454)"/>
  <circle id="Ellipse_5" data-name="Ellipse 5" cx="8.402" cy="8.402" r="8.402" transform="translate(58.558 6.877)"/>
  <path id="Path_66" data-name="Path 66" d="M111.542,206.185l-.352-.771-.551.639a12.664,12.664,0,0,1-5.071,3.491l-.551.2.22.551a33.085,33.085,0,1,1-16.358-17.184l.518.248.226-.551a12.664,12.664,0,0,1,3.733-4.895l.661-.551-.754-.391a40.017,40.017,0,0,0-18.555-4.509,40.474,40.474,0,1,0,36.829,23.676Z" transform="translate(-34.236 -182.46)"/>
</svg>
