<svg id="Layer_2" data-name="Layer 2" xmlns="http://www.w3.org/2000/svg" width="76.667" height="76.666" viewBox="0 0 76.667 76.666">
  <g id="Layer_1" data-name="Layer 1" transform="translate(0 0)">
    <path id="path8" d="M38.228,76.666C17.629,76.666.161,59.268,0,38.539a37.786,37.786,0,0,1,11.037-26.96A38.418,38.418,0,0,1,38.328,0h0a37.877,37.877,0,0,1,26.89,11.167,37.917,37.917,0,0,1,11.448,26.81A38.519,38.519,0,0,1,38.539,76.666Zm.12-74.659A36.422,36.422,0,0,0,12.492,12.993,35.79,35.79,0,0,0,2.007,38.519c.151,19.646,16.706,36.121,36.211,36.121h.261A36.512,36.512,0,0,0,74.66,37.987,35.93,35.93,0,0,0,63.8,12.592,35.759,35.759,0,0,0,38.348,2.007Z" transform="translate(0.001 0)"/>
    <path id="path10" d="M5.636,40.19V17.8h5.448V19.8H8.194V38.224h2.89V40.23Z" transform="translate(2.964 9.355)"/>
    <path id="path12" d="M21.7,27.116c0,4.084-2.478,6.411-5.84,6.411s-5.6-2.619-5.6-6.2c0-3.743,2.348-6.381,5.779-6.381S21.7,23.695,21.7,27.116Zm-9.09.181c0,2.478,1.244,4.445,3.381,4.445s3.361-2.007,3.361-4.535c0-2.3-1.134-4.465-3.361-4.465s-3.4,2.1-3.4,4.605Z" transform="translate(5.394 11.011)"/>
    <path id="path14" d="M18.992,21.324a18.582,18.582,0,0,1,3.231-.271,5.769,5.769,0,0,1,3.492.773A2.569,2.569,0,0,1,26.979,24.1a2.829,2.829,0,0,1-2.007,2.639h0a3.07,3.07,0,0,1,2.458,3.01,3.161,3.161,0,0,1-1.174,2.508c-.863.763-2.3,1.134-4.515,1.134a21.482,21.482,0,0,1-2.729-.161ZM21.2,26.131h1.134c1.535,0,2.4-.722,2.4-1.756s-.863-1.666-2.278-1.666a6.02,6.02,0,0,0-1.264.09Zm0,5.6a9.783,9.783,0,0,0,1.174.05c1.425,0,2.689-.542,2.689-2.007s-1.224-2.007-2.759-2.007H21.2Z" transform="translate(9.985 11.054)"/>
    <path id="path16" d="M28.662,21.116H30.88v7.916c0,3.361-1.625,4.485-4.013,4.485A5.93,5.93,0,0,1,24.99,33.2l.271-1.786a4.866,4.866,0,0,0,1.375.221c1.264,0,2.007-.582,2.007-2.689Z" transform="translate(13.138 11.101)"/>
    <path id="path18" d="M34.577,25.437v1.535H29.962V25.437Z" transform="translate(15.752 13.373)"/>
    <path id="path20" d="M43.275,33a7.7,7.7,0,0,1-3.14.542c-3.863,0-6.211-2.418-6.211-6.12a6.12,6.12,0,0,1,6.5-6.431,7.023,7.023,0,0,1,3.01.542L42.944,23.3a5.91,5.91,0,0,0-2.388-.472c-2.478,0-4.264,1.555-4.264,4.485,0,2.669,1.575,4.395,4.244,4.395a6.221,6.221,0,0,0,2.418-.452Z" transform="translate(17.83 11.028)"/>
    <path id="path22" d="M46.491,17.756V40.211H41.043V38.2h2.89V19.763h-2.89V17.756Z" transform="translate(21.577 9.334)"/>
  </g>
</svg>
