<svg id="atom" xmlns="http://www.w3.org/2000/svg" width="73.251" height="80.901" viewBox="0 0 73.251 80.901">
  <path id="Path_64" data-name="Path 64" d="M91.922,42.737q-1.091-1.415-2.361-2.826.87-1.009,1.652-2.021c5.375-6.969,6.9-13.291,4.3-17.8s-8.841-6.35-17.565-5.179q-1.379.185-2.812.466-.487-1.423-1.032-2.752C70.754,4.483,66.041,0,60.834,0s-9.92,4.483-13.268,12.622q-.546,1.326-1.032,2.752-1.431-.278-2.812-.466c-8.723-1.17-14.961.669-17.565,5.179s-1.078,10.832,4.3,17.8q.78,1.011,1.652,2.021-1.266,1.41-2.361,2.826c-5.375,6.969-6.9,13.291-4.3,17.8,2.092,3.624,6.529,5.523,12.717,5.523a36.569,36.569,0,0,0,4.848-.344q1.656-.222,3.389-.581c.363,1.088.75,2.138,1.164,3.143C50.914,76.418,55.626,80.9,60.834,80.9s9.92-4.483,13.268-12.622c.413-1,.8-2.055,1.164-3.143q1.729.357,3.389.581a36.568,36.568,0,0,0,4.848.344c6.188,0,10.625-1.9,12.717-5.523,2.6-4.51,1.078-10.832-4.3-17.8ZM82.82,19.3c4.333,0,7.4,1.1,8.585,3.161,1.557,2.7.119,7.266-3.945,12.536q-.581.753-1.22,1.507a77.729,77.729,0,0,0-7.961-6.581,76,76,0,0,0-1.8-9.984A35.313,35.313,0,0,1,82.82,19.3ZM67.126,51.826c-2.131,1.23-4.234,2.334-6.291,3.315-2.059-.982-4.162-2.084-6.294-3.315-2.352-1.358-4.6-2.8-6.726-4.288-.178-2.267-.275-4.633-.275-7.087,0-2.749.121-5.388.342-7.9,1.894-1.3,3.883-2.555,5.95-3.749,2.376-1.372,4.718-2.585,7-3.647,2.283,1.063,4.624,2.275,7,3.647,2.068,1.194,4.057,2.449,5.95,3.749.222,2.513.342,5.152.342,7.9,0,2.454-.1,4.82-.275,7.087-2.123,1.493-4.374,2.93-6.726,4.288Zm6,1.9c-.318,2.018-.7,3.929-1.145,5.72-1.758-.511-3.59-1.129-5.479-1.857q1.5-.8,2.992-1.656,1.857-1.072,3.633-2.207ZM55.162,57.587c-1.89.728-3.721,1.346-5.479,1.857-.442-1.791-.827-3.7-1.145-5.72q1.775,1.133,3.633,2.207Q53.661,56.792,55.162,57.587ZM42.858,43.76c-1.5-1.244-2.908-2.51-4.205-3.789q1.973-1.881,4.24-3.711Q42.8,38.335,42.8,40.45,42.8,42.116,42.858,43.76Zm5.811-17.387q.478-2.833,1.126-5.361c1.684.471,3.439,1.042,5.25,1.715q-1.8.937-3.583,1.968-1.421.82-2.794,1.678Zm17.953-3.645c1.811-.673,3.566-1.245,5.251-1.715q.644,2.523,1.126,5.361Q71.625,25.517,70.2,24.7,68.42,23.665,66.622,22.728ZM78.776,36.26q2.261,1.824,4.24,3.711c-1.3,1.279-2.7,2.546-4.205,3.789q.057-1.643.058-3.309,0-2.114-.092-4.191ZM60.834,4.74c3.429,0,7.071,4.362,9.674,11.74a75.912,75.912,0,0,0-9.674,3.479A75.936,75.936,0,0,0,51.16,16.48C53.763,9.1,57.405,4.74,60.834,4.74ZM30.262,22.458c1.19-2.061,4.251-3.161,8.585-3.161a35.3,35.3,0,0,1,6.338.639,75.978,75.978,0,0,0-1.8,9.984A77.729,77.729,0,0,0,35.427,36.5q-.637-.753-1.22-1.507C30.143,29.724,28.7,25.155,30.262,22.458Zm7.877,38.871c-4.333,0-7.4-1.1-8.585-3.161C28,55.471,29.435,50.9,33.5,45.632q.869-1.127,1.863-2.253a75.574,75.574,0,0,0,7.932,6.739,77.327,77.327,0,0,0,1.792,10.457A36.141,36.141,0,0,1,38.139,61.329ZM60.834,76.161c-3.5,0-7.212-4.533-9.824-12.173a77.355,77.355,0,0,0,9.824-3.632,77.355,77.355,0,0,0,9.824,3.632C68.045,71.627,64.329,76.161,60.834,76.161Zm31.28-17.992c-1.753,3.037-7.57,3.985-15.533,2.406a77.3,77.3,0,0,0,1.792-10.457A75.542,75.542,0,0,0,86.3,43.379q.993,1.126,1.863,2.253C92.233,50.9,93.671,55.471,92.114,58.168Z" transform="translate(-24.208 0)"/>
  <circle id="Ellipse_4" data-name="Ellipse 4" cx="7.324" cy="7.324" r="7.324" transform="translate(29.302 33.127)"/>
</svg>
