<svg id="swift" xmlns="http://www.w3.org/2000/svg" width="76.318" height="76.246" viewBox="0 0 76.318 76.246">
  <path id="Path_67" data-name="Path 67" d="M71.345,5.213C67.611,1.479,62.651.24,57.508.24h-38.7C13.755.24,8.63,1.483,4.973,5.141,1.2,8.912.213,13.846,0,18.978v38.7C0,62.585,1.236,68,4.973,71.514c3.734,3.734,8.695,4.973,13.837,4.973h38.7c6.962,0,13.33-2.716,16.791-9.009,1.608-2.923,2.018-6.514,2.018-9.8V19.05C76.318,14.083,75.124,8.769,71.345,5.213ZM64.211,62.577c-3.46-6.63-9.8-4.973-13.044-3.315-.289.143-.577.359-.865.5h0c-6.7,3.6-15.855,3.892-24.936,0A40.128,40.128,0,0,1,7.423,44.345a39.068,39.068,0,0,0,6.7,3.963c9.584,4.54,19.242,4.18,26.088,0-9.729-7.495-17.872-17.224-24.07-25.151a37.568,37.568,0,0,1-3.17-4.4c7.495,6.775,19.24,15.351,23.493,17.729a170.9,170.9,0,0,1-16.5-20.755A166.84,166.84,0,0,0,47.131,38a5.471,5.471,0,0,1,1.154.648c.288-.72.5-1.441.72-2.161,2.234-8.216-.288-17.656-6.053-25.44,13.116,7.855,20.828,22.845,17.656,35.456q-.107.434-.216.865C67.021,55.442,65.219,64.09,64.211,62.577Z" transform="translate(0 -0.24)"/>
</svg>
