<svg width="48" height="49" viewBox="0 0 48 49" fill="none" xmlns="http://www.w3.org/2000/svg">
<rect y="0.766846" width="48" height="48" rx="16" fill="white" fill-opacity="0.05"/>
<rect x="0.5" y="1.26685" width="47" height="47" rx="15.5" stroke="white" stroke-opacity="0.1"/>
<g clip-path="url(#clip0_3901_1675)">
<path d="M34 25.7668C34 20.244 29.5229 15.7668 24 15.7668C18.4771 15.7668 14 20.244 14 25.7668C14 30.7581 17.6568 34.8952 22.4375 35.6454V28.6575H19.8984V25.7668H22.4375V23.5637C22.4375 21.0575 23.9305 19.6731 26.2146 19.6731C27.3084 19.6731 28.4531 19.8684 28.4531 19.8684V22.3293H27.1922C25.95 22.3293 25.5625 23.1002 25.5625 23.8918V25.7668H28.3359L27.8926 28.6575H25.5625V35.6454C30.3432 34.8952 34 30.7581 34 25.7668Z" fill="#ECE7E4"/>
</g>
<defs>
<clipPath id="clip0_3901_1675">
<rect width="20" height="20" fill="white" transform="translate(14 15.7668)"/>
</clipPath>
</defs>
</svg>
