<svg xmlns="http://www.w3.org/2000/svg" width="24" height="24" viewBox="0 0 24 24">
  <g id="favicon" transform="translate(-5420 239)">
    <rect id="favicon-2" data-name="favicon" width="24" height="24" transform="translate(5420 -239)" fill="none"/>
    <path id="Path_2630" data-name="Path 2630" d="M249-258.266a28.864,28.864,0,0,0,.418,3.152,11.35,11.35,0,0,0,2.856,6.039,7.255,7.255,0,0,0,2.9,1.6c3.183,1.245,4.162,1.693,4.57,2.091a2.863,2.863,0,0,1,.887,2.663c-.163.622-1.479,2.744-3.856,6.213a20.035,20.035,0,0,0-1.143,1.755c0,.133.663.235.99.153.408-.1.53-.224,2.02-2.142,3.57-4.6,5.509-7.335,5.866-8.273a4.835,4.835,0,0,0-1.2-5.539c-.765-.755-.877-.826-4.132-2.489-3.06-1.561-8.692-4.529-9.732-5.131C249.071-258.388,249-258.4,249-258.266Z" transform="translate(5175.049 19.461)" fill="#fcbc14"/>
  </g>
</svg>
