<svg xmlns="http://www.w3.org/2000/svg" width="14.778" height="22.104" viewBox="0 0 14.778 22.104">
  <path id="Path_2629" data-name="Path 2629" d="M249-258.272a26.828,26.828,0,0,0,.389,2.93,10.548,10.548,0,0,0,2.655,5.613,6.743,6.743,0,0,0,2.693,1.488c2.958,1.157,3.868,1.574,4.247,1.944a2.661,2.661,0,0,1,.825,2.475,37.784,37.784,0,0,1-3.584,5.774,18.62,18.62,0,0,0-1.062,1.631c0,.123.616.218.92.142.379-.095.493-.209,1.877-1.991,3.318-4.276,5.12-6.817,5.451-7.689a4.494,4.494,0,0,0-1.119-5.148c-.711-.7-.815-.768-3.84-2.313-2.844-1.451-8.078-4.209-9.045-4.769C249.066-258.386,249-258.4,249-258.272Z" transform="translate(-249 258.353)" fill="#fcbc14"/>
</svg>
