<svg xmlns="http://www.w3.org/2000/svg" width="394.5" height="194" viewBox="0 0 394.5 194">
  <g id="goodfirms-rating" transform="translate(-968 -2476)">
    <rect id="Rectangle_2054" data-name="Rectangle 2054" width="394.5" height="194" rx="20" transform="translate(968 2476)" fill="#f0f0f0"/>
    <path id="Shape" d="M-113.519,246.962s-1.777-.178-1.777,1.386v7h11.659v2.1a.993.993,0,0,1-1.066,1.031H-115.3v9.1h12.726s7.714-1.173,7.785-9.1V246.962ZM-95.142,235.8H-118.1c-8.318,1.955-8.5,8.78-8.5,8.78v23.034h8.816V246.642a2.168,2.168,0,0,1,1.777-2.1h20.83l.036-8.744ZM-64.821,261c-.6.391-1.066.711-1.386.889a23.287,23.287,0,0,1-3.2,1.671,10.224,10.224,0,0,1-3.91.889,13.963,13.963,0,0,1-9.917-3.661,12.03,12.03,0,0,1-3.981-9.242,13.4,13.4,0,0,1,3.59-9.349,11.327,11.327,0,0,1,8.709-3.946A14.987,14.987,0,0,1-70.4,239a12.976,12.976,0,0,1,5.048,2.879l-2.275,2.524a8.559,8.559,0,0,0-3.7-2.062,13.027,13.027,0,0,0-3.661-.5,7.655,7.655,0,0,0-6.043,2.879,10.554,10.554,0,0,0-2.417,6.932,8.694,8.694,0,0,0,2.773,6.612,9.867,9.867,0,0,0,7.038,2.63,7.36,7.36,0,0,0,3.626-1.1c1.031-.782,1.564-1.173,1.564-1.173v-5.545H-76.16l1.1-3.448h10.237Zm23.212-6.754a9.673,9.673,0,0,1-2.844,6.931,9.391,9.391,0,0,1-7.038,2.95,9.364,9.364,0,0,1-6.789-2.879,9.369,9.369,0,0,1-2.915-6.967,9.919,9.919,0,0,1,2.773-7,8.872,8.872,0,0,1,6.754-2.95,9.748,9.748,0,0,1,7.216,2.844A9.536,9.536,0,0,1-41.609,254.249Zm-3.59.071a6.329,6.329,0,0,0-1.813-4.585,5.907,5.907,0,0,0-4.514-1.884,5.617,5.617,0,0,0-4.3,1.955,6.415,6.415,0,0,0-1.777,4.443,6.314,6.314,0,0,0,1.777,4.479,5.879,5.879,0,0,0,4.443,1.884,5.76,5.76,0,0,0,4.3-1.848A6.081,6.081,0,0,0-45.2,254.32Zm26.518-.071a9.673,9.673,0,0,1-2.844,6.931,9.391,9.391,0,0,1-7.038,2.95,9.364,9.364,0,0,1-6.789-2.879,9.369,9.369,0,0,1-2.915-6.967,9.919,9.919,0,0,1,2.773-7,8.872,8.872,0,0,1,6.754-2.95,9.748,9.748,0,0,1,7.216,2.844A9.536,9.536,0,0,1-18.681,254.249Zm-3.626.071a6.329,6.329,0,0,0-1.813-4.585,5.907,5.907,0,0,0-4.514-1.884,5.617,5.617,0,0,0-4.3,1.955,6.415,6.415,0,0,0-1.777,4.443,6.314,6.314,0,0,0,1.777,4.479,5.879,5.879,0,0,0,4.443,1.884,5.759,5.759,0,0,0,4.3-1.848,6.081,6.081,0,0,0,1.884-4.443ZM2.5,263.6l-3.306.5v-3.2l-.711.818a9.256,9.256,0,0,1-2.1,1.457,8.379,8.379,0,0,1-3.59.782,8.717,8.717,0,0,1-6.576-2.844,9.68,9.68,0,0,1-2.7-6.825,9.952,9.952,0,0,1,2.666-7,8.392,8.392,0,0,1,6.5-2.915,9.612,9.612,0,0,1,3.839.711,6.661,6.661,0,0,1,1.991,1.386c.178.249.355.5.569.746v-8.424l3.519-.5Zm-3.093-9.1a6.486,6.486,0,0,0-1.92-4.763,5.947,5.947,0,0,0-4.408-1.955,5.693,5.693,0,0,0-4.443,1.848,6.229,6.229,0,0,0-1.6,4.337,6.949,6.949,0,0,0,1.671,4.763,5.348,5.348,0,0,0,4.23,1.848,6.527,6.527,0,0,0,4.479-1.742A5.619,5.619,0,0,0-.588,254.5ZM21.13,242.269H11.249v6.718h7.678v3.448H11.249v11.126l-3.839.569V238.786H20.384Zm7.927-1.955L26.676,243.3,24.4,240.314l2.382-2.95ZM28.346,263.6l-3.519.5V245.326l3.519-.533v18.8ZM44.271,244.58,42.6,248.419a4.081,4.081,0,0,0-.675-.036,10.041,10.041,0,0,0-1.031.071,2.947,2.947,0,0,0-1.1.391,4.211,4.211,0,0,0-1.919,2.062,8.636,8.636,0,0,0-.924,3.875v8.78l-3.519.569v-18.8l3.27-.6v3.91c.427-.675.853-1.351,1.28-2.062a5.412,5.412,0,0,1,2.1-1.528,9.306,9.306,0,0,1,2.346-.391A14.15,14.15,0,0,1,44.271,244.58Zm26.3,19.017-3.519.5V251.227a3.6,3.6,0,0,0-.782-2.595,3.186,3.186,0,0,0-2.346-.818,3.077,3.077,0,0,0-2.808,1.528,4.309,4.309,0,0,0-.675,2.2v11.979l-3.519.64v-12.9a3.776,3.776,0,0,0-.782-2.595,2.616,2.616,0,0,0-2.1-.889h-.355a2.811,2.811,0,0,0-2.7,1.564,6.194,6.194,0,0,0-.64,2.986v11.161l-3.661.64V245.255l3.306-.569V247.1a7.772,7.772,0,0,1,1.066-1.351,4.707,4.707,0,0,1,3.306-1.315,5.76,5.76,0,0,1,3.128.675,6.263,6.263,0,0,1,1.777,2.2,5.759,5.759,0,0,1,5.19-2.879A5.691,5.691,0,0,1,69.3,246.5a8.228,8.228,0,0,1,1.28,4.976Zm16.1-5.687a5.509,5.509,0,0,1-1.813,4.266,6.4,6.4,0,0,1-4.585,1.671,7.521,7.521,0,0,1-3.768-.96,6.843,6.843,0,0,1-2.524-2.239l2.488-2.2a3.652,3.652,0,0,0,.5.64,4.414,4.414,0,0,0,3.306,1.422,2.993,2.993,0,0,0,2.1-.711,2.421,2.421,0,0,0,.782-1.955c0-.96-.6-1.6-1.813-1.955-2.382-.711-3.7-1.138-3.875-1.209a6.679,6.679,0,0,1-2.382-1.848,5.181,5.181,0,0,1-.853-3.128,5.307,5.307,0,0,1,1.777-4.052,6.09,6.09,0,0,1,4.23-1.6,7.182,7.182,0,0,1,3.448.853,6.2,6.2,0,0,1,2.275,1.848l-2.1,2.275a7.722,7.722,0,0,0-1.031-.853,4.235,4.235,0,0,0-2.417-.889,3.125,3.125,0,0,0-1.813.5,2.025,2.025,0,0,0-.853,1.777,1.815,1.815,0,0,0,.818,1.671,11.758,11.758,0,0,0,3.057.96,7.251,7.251,0,0,1,3.661,1.955A4.959,4.959,0,0,1,86.678,257.91Z" transform="translate(1185.6 2280.496)" fill="#3a7af3"/>
    <text id="Top_Mobile_App_Development_Company" data-name="Top Mobile App Development  Company" transform="translate(1165.75 2643)" font-size="18" font-family="LibreFranklin-Regular, Libre Franklin"><tspan x="-167.931" y="0" xml:space="preserve">Top Mobile App Development  Company</tspan></text>
    <g id="Group_5982" data-name="Group 5982" transform="translate(857.314 10.651)">
      <path id="Icon_awesome-star" data-name="Icon awesome-star" d="M14.532.976l-3.58,7.258L2.943,9.4a1.755,1.755,0,0,0-.97,2.993l5.794,5.646L6.4,26.017a1.753,1.753,0,0,0,2.544,1.847L16.105,24.1l7.165,3.766a1.755,1.755,0,0,0,2.544-1.847l-1.37-7.976,5.794-5.646a1.755,1.755,0,0,0-.97-2.993L21.258,8.234,17.679.976a1.756,1.756,0,0,0-3.147,0Z" transform="translate(168.43 2562.35)" fill="#fb0"/>
      <path id="Icon_awesome-star-2" data-name="Icon awesome-star" d="M14.532.976l-3.58,7.258L2.943,9.4a1.755,1.755,0,0,0-.97,2.993l5.794,5.646L6.4,26.017a1.753,1.753,0,0,0,2.544,1.847L16.105,24.1l7.165,3.766a1.755,1.755,0,0,0,2.544-1.847l-1.37-7.976,5.794-5.646a1.755,1.755,0,0,0-.97-2.993L21.258,8.234,17.679.976a1.756,1.756,0,0,0-3.147,0Z" transform="translate(216.43 2562.35)" fill="#fb0"/>
      <path id="Icon_awesome-star-3" data-name="Icon awesome-star" d="M14.532.976l-3.58,7.258L2.943,9.4a1.755,1.755,0,0,0-.97,2.993l5.794,5.646L6.4,26.017a1.753,1.753,0,0,0,2.544,1.847L16.105,24.1l7.165,3.766a1.755,1.755,0,0,0,2.544-1.847l-1.37-7.976,5.794-5.646a1.755,1.755,0,0,0-.97-2.993L21.258,8.234,17.679.976a1.756,1.756,0,0,0-3.147,0Z" transform="translate(264.43 2562.35)" fill="#fb0"/>
      <path id="Icon_awesome-star-4" data-name="Icon awesome-star" d="M14.532.976l-3.58,7.258L2.943,9.4a1.755,1.755,0,0,0-.97,2.993l5.794,5.646L6.4,26.017a1.753,1.753,0,0,0,2.544,1.847L16.105,24.1l7.165,3.766a1.755,1.755,0,0,0,2.544-1.847l-1.37-7.976,5.794-5.646a1.755,1.755,0,0,0-.97-2.993L21.258,8.234,17.679.976a1.756,1.756,0,0,0-3.147,0Z" transform="translate(312.43 2562.35)" fill="#fb0"/>
      <path id="Icon_awesome-star-5" data-name="Icon awesome-star" d="M14.532.976l-3.58,7.258L2.943,9.4a1.755,1.755,0,0,0-.97,2.993l5.794,5.646L6.4,26.017a1.753,1.753,0,0,0,2.544,1.847L16.105,24.1l7.165,3.766a1.755,1.755,0,0,0,2.544-1.847l-1.37-7.976,5.794-5.646a1.755,1.755,0,0,0-.97-2.993L21.258,8.234,17.679.976a1.756,1.756,0,0,0-3.147,0Z" transform="translate(360.43 2562.35)" fill="#fb0"/>
      <text id="_5.0" data-name="5.0" transform="translate(413 2583)" font-size="20" font-family="LibreFranklin-Bold, Libre Franklin" font-weight="700"><tspan x="0" y="0">5.0</tspan></text>
    </g>
  </g>
</svg>
