<svg xmlns="http://www.w3.org/2000/svg" width="394.5" height="194" viewBox="0 0 394.5 194">
  <g id="google-rating" transform="translate(-1383 -2476)">
    <rect id="Rectangle_2055" data-name="Rectangle 2055" width="394.5" height="194" rx="20" transform="translate(1383 2476)" fill="#f0f0f0"/>
    <g id="Group_4330" data-name="Group 4330" transform="translate(1512.234 2510.002)">
      <path id="Path_2424" data-name="Path 2424" d="M16.75,0h1.21a16.506,16.506,0,0,1,11.3,4.77c-1.1,1.118-2.214,2.191-3.287,3.309A12.345,12.345,0,0,0,5.247,15.52a12.705,12.705,0,0,0,2.762,9.814,12.216,12.216,0,0,0,8.9,4.382,11.849,11.849,0,0,0,8.856-3.036,9.667,9.667,0,0,0,2.944-6.3c-3.789,0-7.577.023-11.366,0v-4.7H33.3c.822,5.044-.365,10.727-4.2,14.333a15.6,15.6,0,0,1-9.7,4.359A17.815,17.815,0,0,1,9.2,32.364a17.565,17.565,0,0,1-8.148-9.289A16.828,16.828,0,0,1,.934,11.686,17.376,17.376,0,0,1,7.21,3.355,17.918,17.918,0,0,1,16.75,0Z" transform="translate(0.003)" fill="#3780ff"/>
      <path id="Path_2425" data-name="Path 2425" d="M474.4,5.2h4.884V37.792c-1.62,0-3.264.023-4.884-.023C474.423,26.928,474.4,16.064,474.4,5.2Z" transform="translate(-366.124 -4.013)" fill="#38b137"/>
      <path id="Path_2426" data-name="Path 2426" d="M163.234,54.015A11.468,11.468,0,0,1,172,55.887a10.72,10.72,0,0,1,4.314,6.847,11.036,11.036,0,0,1-11.594,13.238,11.107,11.107,0,0,1-8.308-4.451A11.409,11.409,0,0,1,154.9,61.159a10.831,10.831,0,0,1,8.331-7.144m.685,4.337a6.137,6.137,0,0,0-3.2,2.031,7.239,7.239,0,0,0,.365,9.426,6.077,6.077,0,0,0,5.432,1.689,6.147,6.147,0,0,0,4.245-3.127,7.219,7.219,0,0,0-1.232-8.582A6.158,6.158,0,0,0,163.919,58.352Z" transform="translate(-119.069 -41.531)" fill="#fa3913"/>
      <path id="Path_2427" data-name="Path 2427" d="M269.258,54.01a11.1,11.1,0,0,1,10.864,17.871,11.289,11.289,0,0,1-17.688-.365A11.519,11.519,0,0,1,261,60.925a10.84,10.84,0,0,1,8.262-6.916m.685,4.336a6.241,6.241,0,0,0-3.2,2.008A7.25,7.25,0,0,0,267,69.69a6.107,6.107,0,0,0,5.569,1.8,6.261,6.261,0,0,0,4.245-3.127,7.257,7.257,0,0,0-1.278-8.6A6.118,6.118,0,0,0,269.943,58.346Z" transform="translate(-200.899 -41.525)" fill="#fcbd06"/>
      <path id="Path_2428" data-name="Path 2428" d="M371.311,55.331a9.331,9.331,0,0,1,8.947-.685,8.525,8.525,0,0,1,2.328,1.712c.023-.616,0-1.255.023-1.894,1.529.023,3.058,0,4.61.023v20.13c-.023,3.036-.8,6.254-2.99,8.468a10.879,10.879,0,0,1-9.38,2.693,10.613,10.613,0,0,1-7.988-6.368c1.369-.662,2.807-1.187,4.222-1.8a6.277,6.277,0,0,0,4.451,3.834,5.915,5.915,0,0,0,5.706-1.826c1.415-1.735,1.415-4.108,1.347-6.231a8.1,8.1,0,0,1-3.72,2.282,10.03,10.03,0,0,1-9.107-2.351,11.235,11.235,0,0,1,1.552-17.985m4.725,2.921a6,6,0,0,0-3.583,2.077,7.282,7.282,0,0,0,.023,9.152,5.971,5.971,0,0,0,5.135,2.1,5.8,5.8,0,0,0,4.359-2.9,7.7,7.7,0,0,0-.776-8.627A5.617,5.617,0,0,0,376.035,58.253Z" transform="translate(-282.433 -41.523)" fill="#3780ff"/>
      <path id="Path_2429" data-name="Path 2429" d="M509.8,56.447a10.3,10.3,0,0,1,10.476-2.077c3.332,1.255,5.455,4.428,6.528,7.692-4.953,2.054-9.883,4.085-14.835,6.14a5.886,5.886,0,0,0,3.15,2.967,6.393,6.393,0,0,0,6.025-.867,9.713,9.713,0,0,0,1.689-1.8c1.255.844,2.511,1.666,3.766,2.511a11.175,11.175,0,0,1-17.643,1.118,11.7,11.7,0,0,1,.844-15.68m2.442,4.222a6.515,6.515,0,0,0-1.073,3.834q4.964-2.054,9.928-4.131a4.105,4.105,0,0,0-3.218-2.26A5.832,5.832,0,0,0,512.241,60.669Z" transform="translate(-390.771 -41.475)" fill="#fa3913"/>
    </g>
    <text id="Top_Mobile_Developers" data-name="Top Mobile Developers" transform="translate(1580 2643)" font-size="18" font-family="LibreFranklin-Regular, Libre Franklin"><tspan x="-95.76" y="0">Top Mobile Developers</tspan></text>
    <g id="Group_5983" data-name="Group 5983" transform="translate(1272.314 10.651)">
      <path id="Icon_awesome-star" data-name="Icon awesome-star" d="M14.532.976l-3.58,7.258L2.943,9.4a1.755,1.755,0,0,0-.97,2.993l5.794,5.646L6.4,26.017a1.753,1.753,0,0,0,2.544,1.847L16.105,24.1l7.165,3.766a1.755,1.755,0,0,0,2.544-1.847l-1.37-7.976,5.794-5.646a1.755,1.755,0,0,0-.97-2.993L21.258,8.234,17.679.976a1.756,1.756,0,0,0-3.147,0Z" transform="translate(168.43 2562.35)" fill="#fb0"/>
      <path id="Icon_awesome-star-2" data-name="Icon awesome-star" d="M14.532.976l-3.58,7.258L2.943,9.4a1.755,1.755,0,0,0-.97,2.993l5.794,5.646L6.4,26.017a1.753,1.753,0,0,0,2.544,1.847L16.105,24.1l7.165,3.766a1.755,1.755,0,0,0,2.544-1.847l-1.37-7.976,5.794-5.646a1.755,1.755,0,0,0-.97-2.993L21.258,8.234,17.679.976a1.756,1.756,0,0,0-3.147,0Z" transform="translate(216.43 2562.35)" fill="#fb0"/>
      <path id="Icon_awesome-star-3" data-name="Icon awesome-star" d="M14.532.976l-3.58,7.258L2.943,9.4a1.755,1.755,0,0,0-.97,2.993l5.794,5.646L6.4,26.017a1.753,1.753,0,0,0,2.544,1.847L16.105,24.1l7.165,3.766a1.755,1.755,0,0,0,2.544-1.847l-1.37-7.976,5.794-5.646a1.755,1.755,0,0,0-.97-2.993L21.258,8.234,17.679.976a1.756,1.756,0,0,0-3.147,0Z" transform="translate(264.43 2562.35)" fill="#fb0"/>
      <path id="Icon_awesome-star-4" data-name="Icon awesome-star" d="M14.532.976l-3.58,7.258L2.943,9.4a1.755,1.755,0,0,0-.97,2.993l5.794,5.646L6.4,26.017a1.753,1.753,0,0,0,2.544,1.847L16.105,24.1l7.165,3.766a1.755,1.755,0,0,0,2.544-1.847l-1.37-7.976,5.794-5.646a1.755,1.755,0,0,0-.97-2.993L21.258,8.234,17.679.976a1.756,1.756,0,0,0-3.147,0Z" transform="translate(312.43 2562.35)" fill="#fb0"/>
      <path id="Icon_awesome-star-5" data-name="Icon awesome-star" d="M14.532.976l-3.58,7.258L2.943,9.4a1.755,1.755,0,0,0-.97,2.993l5.794,5.646L6.4,26.017a1.753,1.753,0,0,0,2.544,1.847L16.105,24.1l7.165,3.766a1.755,1.755,0,0,0,2.544-1.847l-1.37-7.976,5.794-5.646a1.755,1.755,0,0,0-.97-2.993L21.258,8.234,17.679.976a1.756,1.756,0,0,0-3.147,0Z" transform="translate(360.43 2562.35)" fill="#fb0"/>
      <text id="_5.0" data-name="5.0" transform="translate(413 2583)" font-size="20" font-family="LibreFranklin-Bold, Libre Franklin" font-weight="700"><tspan x="0" y="0">5.0</tspan></text>
    </g>
  </g>
</svg>
