<svg id="Group_52" data-name="Group 52" xmlns="http://www.w3.org/2000/svg" width="16.205" height="15.511" viewBox="0 0 16.205 15.511">
  <path id="Icon_awesome-star" data-name="Icon awesome-star" d="M8.675.539,6.7,4.549l-4.425.645a.97.97,0,0,0-.536,1.654l3.2,3.12L4.18,14.375A.969.969,0,0,0,5.585,15.4l3.959-2.081L13.5,15.4a.969.969,0,0,0,1.405-1.021l-.757-4.407,3.2-3.12a.97.97,0,0,0-.536-1.654l-4.425-.645L10.413.539a.97.97,0,0,0-1.739,0Z" transform="translate(-1.441 0.001)" fill="#f05d27"/>
</svg>
