<svg width="48" height="49" viewBox="0 0 48 49" fill="none" xmlns="http://www.w3.org/2000/svg">
<rect y="0.383545" width="48" height="48" rx="16" fill="white" fill-opacity="0.05"/>
<rect x="0.5" y="0.883545" width="47" height="47" rx="15.5" stroke="white" stroke-opacity="0.1"/>
<g clip-path="url(#clip0_3921_1762)">
<path d="M21.4805 17.836C18.2773 17.9649 17.0234 18.0782 16.3594 18.3009C15.5273 18.5782 14.7891 19.2853 14.457 20.1173C14.1406 20.9142 14 22.4493 14 25.0782C14 27.6681 14.1406 29.172 14.457 29.961C14.8125 30.8439 15.5352 31.5157 16.4336 31.7931C17.8164 32.2189 24.1953 32.4024 28.668 32.1446C31.1914 32.0001 31.9023 31.836 32.6563 31.211C33.2539 30.7149 33.5898 30.0743 33.7617 29.1017C33.9297 28.172 33.9688 27.5274 33.9883 25.4767C34.0156 22.9024 33.9297 21.547 33.6719 20.5392C33.3945 19.4493 32.6094 18.6056 31.5664 18.2853C31.043 18.1251 29.8203 17.9923 27.8867 17.8868C27.1562 17.8478 22.168 17.8087 21.4805 17.836ZM26.6172 19.4532C29.0078 19.5314 30.2695 19.629 30.9648 19.7892C31.4141 19.8946 31.7891 20.1915 32 20.6056C32.3008 21.2032 32.4453 23.1954 32.3945 25.9962C32.3594 27.7853 32.2227 29.004 32.0039 29.4767C31.8867 29.7228 31.5352 30.0743 31.2891 30.1915C30.832 30.4024 29.582 30.5235 26.7539 30.6251C23.1094 30.7579 17.9258 30.5665 16.918 30.2579C16.5312 30.1407 16.1992 29.8595 16.0117 29.4962C15.7031 28.879 15.5508 26.8673 15.6094 24.0431C15.6445 22.129 15.7813 21.0196 16.0391 20.5392C16.2617 20.1173 16.6602 19.8439 17.1875 19.7423C17.8477 19.6173 19.2109 19.5235 21.3242 19.4532C23.5156 19.3829 24.3516 19.3829 26.6172 19.4532Z" fill="#ECE7E4"/>
<path d="M22.0078 25.0391C22.0078 26.7773 22.0195 28.2031 22.0313 28.2031C22.082 28.2031 27.4766 25.0664 27.4766 25.0391C27.4766 25.0078 22.082 21.875 22.0313 21.875C22.0195 21.875 22.0078 23.2969 22.0078 25.0391Z" fill="#ECE7E4"/>
</g>
<defs>
<clipPath id="clip0_3921_1762">
<rect width="20" height="20" fill="white" transform="translate(14 15.3835)"/>
</clipPath>
</defs>
</svg>
