<svg xmlns="http://www.w3.org/2000/svg" width="99.537" height="63.253" viewBox="0 0 99.537 63.253">
  <g id="cdu_logo" transform="translate(-38 258.353)">
    <path id="Path_77" data-name="Path 77" d="M249-258.121a76.765,76.765,0,0,0,1.112,8.383c1.438,7.163,4.07,12.725,7.6,16.062,1.926,1.818,3.174,2.5,7.705,4.26,8.465,3.31,11.069,4.5,12.155,5.562a7.614,7.614,0,0,1,2.36,7.081c-.434,1.655-3.934,7.3-10.256,16.523a53.279,53.279,0,0,0-3.039,4.667c0,.353,1.764.624,2.632.407,1.085-.271,1.411-.6,5.372-5.7,9.5-12.236,14.651-19.507,15.6-22,2.116-5.589,1.031-10.581-3.2-14.732-2.035-2.008-2.333-2.2-10.988-6.62-8.139-4.151-23.116-12.046-25.883-13.647C249.19-258.447,249-258.474,249-258.121Z" transform="translate(-153.753 0)" fill="#fcbc14"/>
    <g id="Group_68" data-name="Group 68" transform="translate(38 -229.466)">
      <path id="Path_78" data-name="Path 78" d="M56.717-151.533A5.091,5.091,0,0,0,53-146.351c0,3.907,2.686,5.779,7.922,5.508,2.93-.136,4.612-.9,5.372-2.415.922-1.791.841-1.872-1.764-1.872-1.357,0-2.306.109-2.306.271,0,.678-1.112,1.357-2.252,1.357-1.736,0-2.5-.9-2.5-2.9,0-1.3.109-1.574.76-2.143a2.742,2.742,0,0,1,3.446-.109,1.8,1.8,0,0,1,.543.814c0,.163.95.271,2.306.271,2.55,0,2.686-.109,1.9-1.6a4.965,4.965,0,0,0-3.391-2.442A16.467,16.467,0,0,0,56.717-151.533Z" transform="translate(-48.93 151.88)" fill="#fff"/>
      <path id="Path_79" data-name="Path 79" d="M153.8-151.442a6.046,6.046,0,0,0-2.008,1,6.141,6.141,0,0,0-1.194,6.62c1.085,2.388,3.283,3.283,7.515,3.066,3.825-.19,5.616-1.438,6.023-4.205.461-2.984-.461-5.155-2.632-6.132A15.911,15.911,0,0,0,153.8-151.442Zm5.372,3.012c.57.543.678.922.678,2.17,0,2.062-.733,2.849-2.659,2.849-1.872,0-2.632-.841-2.632-2.9,0-1.3.109-1.574.76-2.143A2.991,2.991,0,0,1,159.167-148.43Z" transform="translate(-119.691 151.789)" fill="#fff"/>
      <path id="Path_80" data-name="Path 80" d="M110-145.782v5.291h10.31v-2.984H114.1l-.081-3.744-.081-3.717-1.953-.081L110-151.1Z" transform="translate(-90.466 151.312)" fill="#fff"/>
      <path id="Path_81" data-name="Path 81" d="M207-147.085c0,4.5.244,5.318,1.953,6.24,1.329.705,6.973.705,8.438-.027,1.709-.841,1.953-1.628,1.953-6.132v-3.934l-1.953-.081-1.926-.081-.109,3.69c-.081,3.283-.136,3.744-.6,4.1a3.215,3.215,0,0,1-3.093-.054c-.57-.38-.6-.6-.6-4.07v-3.636H207Z" transform="translate(-161.148 151.312)" fill="#fff"/>
      <path id="Path_82" data-name="Path 82" d="M259-145.855v5.345l5.1-.109c4.477-.081,5.182-.136,6-.624,1.736-1.031,2.062-1.764,2.062-4.612,0-2.93-.353-3.69-2.2-4.612-.922-.461-1.709-.543-6-.624L259-151.2Zm8.275-1.953c.6.516.733.841.733,1.953,0,1.926-.814,2.577-3.2,2.577H263.07v-5.155h1.736C266.244-148.433,266.705-148.324,267.275-147.809Z" transform="translate(-199.04 151.385)" fill="#fff"/>
      <path id="Path_83" data-name="Path 83" d="M134.21-108.438c-2.306.76-3.31,2.36-3.31,5.209,0,2.415.76,3.8,2.6,4.721,1.221.6,1.682.678,4.477.678,2.686,0,3.283-.081,4.26-.6,2.089-1.112,2.957-2.9,2.713-5.535A4.579,4.579,0,0,0,142.539-108c-1-.57-1.574-.678-4.151-.733A14.69,14.69,0,0,0,134.21-108.438Zm5.4,2.6c.678.38,1.194,2.143.977,3.364a2.561,2.561,0,0,1-2.795,2.062c-1.764,0-2.523-.841-2.523-2.849,0-2.035.76-2.849,2.577-2.849A5.187,5.187,0,0,1,139.609-105.834Z" transform="translate(-105.695 120.452)" fill="#fff"/>
      <path id="Path_84" data-name="Path 84" d="M74-102.855v5.345l4.965-.109c5.508-.136,6.457-.38,7.6-1.953.515-.733.6-1.194.6-3.337,0-2.795-.353-3.554-2.062-4.558-.814-.488-1.519-.543-6-.624L74-108.2Zm8.275-1.981a2.045,2.045,0,0,1,.733,1.736c.027,2.116-.841,2.822-3.473,2.822H78.07v-5.155h1.736C81.244-105.433,81.705-105.324,82.275-104.836Z" transform="translate(-64.233 120.051)" fill="#fff"/>
      <path id="Path_85" data-name="Path 85" d="M189-107.747c0,.19.651,2.55,1.438,5.236l1.438,4.884h4.043l.705-2.849.705-2.849.3,1.085c.163.6.488,1.9.76,2.9l.434,1.845h2.008c1.655,0,2.008-.081,2.116-.488.95-3.147,2.876-9.849,2.876-9.957a7.1,7.1,0,0,0-1.981-.136H201.86l-.651,3.174-.651,3.2-.787-3.2-.814-3.2-1.655.081-1.655.081-.705,2.984c-.38,1.628-.787,2.794-.868,2.577s-.353-1.384-.6-2.577-.515-2.388-.6-2.659c-.109-.38-.434-.461-2.008-.461C189.543-108.073,189-107.964,189-107.747Z" transform="translate(-148.032 119.978)" fill="#fff"/>
      <path id="Path_86" data-name="Path 86" d="M259-102.709v5.291h3.771l.081-2.93.081-2.9,2.17,2.849,2.171,2.849,2.252.081,2.225.081V-108H267.98l-.081,2.9-.081,2.93L265.7-105.1l-2.116-2.9H259Z" transform="translate(-199.04 119.905)" fill="#fff"/>
      <path id="Path_87" data-name="Path 87" d="M38-61.175c0,4.639.244,5.345,2.116,6.267,1.764.841,6.4.9,8.031.081,1.981-1,2.2-1.519,2.279-6.132L50.507-65h-4.1v3.337c0,3.69-.217,4.368-1.574,4.667a3.091,3.091,0,0,1-2.55-.76,20.614,20.614,0,0,1-.217-3.8V-65H38Z" transform="translate(-38 88.572)" fill="#fff"/>
      <path id="Path_88" data-name="Path 88" d="M94-59.845v5.155h4.043l.081-2.767.081-2.767,2.035,2.767,2.035,2.74,2.388.027h2.36V-65H102.98l-.081,2.767-.081,2.795-1.981-2.795L98.829-65H94Z" transform="translate(-78.807 88.572)" fill="#fff"/>
      <path id="Path_89" data-name="Path 89" d="M153-60.018v5.182h4.938c4.45,0,5.046-.054,6.1-.57,1.6-.76,2.252-2.062,2.252-4.422,0-2.333-.6-3.771-1.872-4.558-.922-.57-1.329-.624-6.186-.705L153-65.2Zm8.248-2.062a3.43,3.43,0,0,1,.651,3.12c-.3,1.112-1.465,1.682-3.473,1.682H157.07v-5.155h1.845A5.258,5.258,0,0,1,161.248-62.08Z" transform="translate(-121.799 88.717)" fill="#fff"/>
      <path id="Path_90" data-name="Path 90" d="M212-59.845v5.155h10.852v-2.442H216.07v-1.329l3.2-.081,3.174-.081v-2.442l-3.174-.081-3.2-.081v-1.329h6.783V-65H212Z" transform="translate(-164.792 88.572)" fill="#fff"/>
      <path id="Path_91" data-name="Path 91" d="M261-59.845v5.155h4.043l.081-1.574.081-1.546h1.682a5.331,5.331,0,0,1,1.872.217,3.7,3.7,0,0,1,.38,1.492l.136,1.275,2.225.081,2.225.081-.271-.9a9.29,9.29,0,0,1-.244-2.035,2.333,2.333,0,0,0-.461-1.628c-.461-.461-.461-.515.136-1.085a2.164,2.164,0,0,0,.6-1.709c0-2.686-.733-2.984-7.325-2.984H261Zm8.085-1.655c.136.868-.326,1.112-2.306,1.112H265.07v-1.926l1.981.081C268.868-62.151,269-62.1,269.085-61.5Z" transform="translate(-200.498 88.572)" fill="#fff"/>
    </g>
  </g>
</svg>
