<svg xmlns="http://www.w3.org/2000/svg" width="50.747" height="42.037" viewBox="0 0 50.747 42.037">
  <g id="customer-service" transform="translate(-28.796 -68.012)">
    <path id="Path_2627" data-name="Path 2627" d="M-187.9-31.033a14.161,14.161,0,0,1,4.118,10.005,14.3,14.3,0,0,1-3.379,9.1l-.174.216a12.771,12.771,0,0,1-4.74,3.358l-.361.164a12.767,12.767,0,0,1-4.33.953l-.381.017a14.551,14.551,0,0,1-5.164-.79,1.852,1.852,0,0,0-1.374-.109l-.343.192-.38.209-.392.223-.391.216c-.511.283-1.018.57-1.518.871a1.817,1.817,0,0,1-1.338.176,1.251,1.251,0,0,1-.558-.782,5.115,5.115,0,0,1,.206-1.846l.06-.23c.083-.317.165-.633.258-.948a5.086,5.086,0,0,0,.258-1.556,4.259,4.259,0,0,0-1.005-1.117,9.16,9.16,0,0,1-.621-.935l-.155-.258a13.73,13.73,0,0,1-1.9-6.4l-.014-.355a13.7,13.7,0,0,1,3.592-9.8l.442-.455.225-.246a13.5,13.5,0,0,1,9.064-3.767A14.3,14.3,0,0,1-187.9-31.033Zm-18.806,8.379a2.836,2.836,0,0,0-.447,2.234,2.707,2.707,0,0,0,1.229,1.564,2.582,2.582,0,0,0,1.9.283,2.862,2.862,0,0,0,1.6-1.181,2.747,2.747,0,0,0,.2-2.19,2.891,2.891,0,0,0-1.357-1.492A2.693,2.693,0,0,0-206.706-22.654Zm14.073-.112a2.831,2.831,0,0,0-.558,2.234,2.914,2.914,0,0,0,1.452,1.787,2.534,2.534,0,0,0,2.01.056,2.816,2.816,0,0,0,1.47-1.44,3.043,3.043,0,0,0-.081-2.12,2.891,2.891,0,0,0-1.83-1.358A2.562,2.562,0,0,0-192.633-22.766Zm-6.954-.009a2.581,2.581,0,0,0-.633,1.935,3.018,3.018,0,0,0,1.215,1.948,2.535,2.535,0,0,0,1.794.37,3.031,3.031,0,0,0,1.921-1.563,2.632,2.632,0,0,0,.04-1.921,2.793,2.793,0,0,0-1.445-1.441A2.635,2.635,0,0,0-199.588-22.775Z" transform="translate(251.832 109.094)"/>
    <path id="Path_2628" data-name="Path 2628" d="M-312.867-45.293l.318.3c2.121,2.052,4.486,5.4,4.82,8.412l.419-.021a5.18,5.18,0,0,1,3.567,1.487,10.081,10.081,0,0,1,2.285,7.045,10.864,10.864,0,0,1-2.585,7.014l-.175.214a4.767,4.767,0,0,1-2.912,1.488,10.51,10.51,0,0,1-3.056-.473l-.2.27a25.885,25.885,0,0,1-1.986,2.356q-.158.166-.314.333a18.088,18.088,0,0,1-8.891,5.194h-.447l.021.391a2.3,2.3,0,0,1-.525,1.593,3.517,3.517,0,0,1-2.706.73h-1.174c-.4,0-.805,0-1.208.005h-.774l-.362,0a3.531,3.531,0,0,1-2.221-.559l-.147-.19-.153-.187a4.223,4.223,0,0,1-.308-2.854,2.268,2.268,0,0,1,1.069-1.28,4.345,4.345,0,0,1,1.834-.254l.7-.007q.543,0,1.086-.005a17.062,17.062,0,0,0,4.536-.516l.34-.092c.263-.078.52-.164.777-.257l.276-.1a16.869,16.869,0,0,0,8.743-7.482l.115-.2c.126-.228.243-.46.359-.693l.159-.289a14.086,14.086,0,0,0,1.036-4.313c.055-.367.116-.733.175-1.1A12.952,12.952,0,0,0-310.3-33.9l-.062-.343c-.054-.268-.118-.531-.19-.8l-.073-.279a16.161,16.161,0,0,0-4-7.125,1.56,1.56,0,0,1-.37-.529c-.138-.263-.285-.3-.551-.423-.145-.126-.287-.257-.426-.391a16.745,16.745,0,0,0-11.972-3.965,17.445,17.445,0,0,0-9.94,4.132l-.269.22a10.753,10.753,0,0,0-1.407,1.455l-.262.321a17.36,17.36,0,0,0-3.124,5.969l-.078.256c-.087.311-.156.622-.222.938l-.051.24a12.261,12.261,0,0,0,.044,4.7q.056.357.11.714.112.726.229,1.451.24,1.487.461,2.977c.044.288.089.576.135.865.317,2.047.317,2.047-.1,2.942a5.5,5.5,0,0,1-3.421,1.226,5,5,0,0,1-3.615-1.492,10.678,10.678,0,0,1-2.729-6.813l-.017-.34a9.687,9.687,0,0,1,2.424-7.111,5.03,5.03,0,0,1,3.3-1.512c.182.007.363.016.544.028l.032-.327c.417-2.876,2.586-5.789,4.547-7.827l.161-.17a19.822,19.822,0,0,1,13.644-6.081A20.3,20.3,0,0,1-312.867-45.293Z" transform="translate(381 119)"/>
  </g>
</svg>
