<svg xmlns="http://www.w3.org/2000/svg" width="62.094" height="59.803" viewBox="0 0 62.094 59.803">
  <g id="build" transform="translate(0.664 -7.803)">
    <path id="Path_2621" data-name="Path 2621" d="M-.527,0A6.117,6.117,0,0,1,.719.524l.293.17.313.184.684.4.362.209c.619.356,1.243.7,1.866,1.051q1.518.848,3.033,1.7l.336.189C9.649,5.578,9.649,5.578,9.88,5.809c.012.171.015.343.015.515v.709c0,.129,0,.257,0,.39q0,.641,0,1.283,0,.443,0,.887,0,1.169,0,2.339,0,1.192,0,2.385,0,2.341-.006,4.683l-.928-.462-.264-.131c-.662-.33-1.308-.682-1.947-1.056l-.649-.375-.338-.2c-.5-.284-.993-.562-1.492-.84q-.576-.321-1.15-.645-.705-.4-1.416-.78l-.619-.342-.282-.148a2.789,2.789,0,0,1-1.322-1.44A6.121,6.121,0,0,1-.6,11.32v-.372c0-.4.005-.807.01-1.21q0-.421,0-.842,0-1.105.015-2.211.009-1.129.012-2.258Q-.547,2.213-.527,0Z" transform="translate(17.49 48.608)"/>
    <path id="Path_2622" data-name="Path 2622" d="M-76.468,0q.017,2.439.025,4.879,0,1.133.011,2.265.008,1.093.009,2.187,0,.417.005.834c0,.39,0,.779,0,1.169l.005.347a2.613,2.613,0,0,1-.544,1.751,3.965,3.965,0,0,1-.719.483l-.209.121c-.214.124-.429.244-.645.364l-.389.221q-.582.328-1.169.648l-.861.476-.216.12q-1.05.58-2.092,1.175-1.288.729-2.579,1.452l-.279.157c-.629.35-.629.35-.764.35q-.034-2.564-.05-5.128-.008-1.191-.023-2.381-.016-1.149-.019-2.3,0-.439-.011-.877c-.007-.409-.008-.818-.008-1.227L-87,6.721c.01-.8.01-.8.331-1.118a5.656,5.656,0,0,1,.757-.4l.347-.2.32-.177.364-.2.383-.212q1.445-.805,2.882-1.626,1.642-.942,3.3-1.86l.368-.205.325-.181q.32-.182.633-.377A.715.715,0,0,1-76.468,0Z" transform="translate(120.295 48.608)"/>
    <path id="Path_2623" data-name="Path 2623" d="M-84.009-1.717c.39.189.765.4,1.141.614l.551.312q.644.366,1.285.736c.731.42,1.466.832,2.2,1.244l.379.213q.973.545,1.951,1.082l.763.422.361.2.331.184.291.159a1.255,1.255,0,0,1,.477.657l-.256.142q-2.383,1.32-4.755,2.659-1.5.849-3,1.686l-.356.2-.35.194c-.252.145-.5.3-.747.451l-.387.242-.348.225a.681.681,0,0,1-.637.053l-.294-.161-.269-.136-.275-.15-.314-.172-.337-.185-.356-.195c-1.063-.584-2.119-1.181-3.175-1.78q-1.148-.651-2.3-1.293Q-94.01,5-95.574,4.1a1.49,1.49,0,0,1,.883-.873l.4-.219.433-.232.447-.243.911-.5c.618-.336,1.23-.684,1.842-1.032l.674-.381.342-.194q1-.565,2-1.127l.386-.217C-85.111-2.114-85.111-2.114-84.009-1.717Z" transform="translate(115.32 36.521)"/>
    <path id="Path_2624" data-name="Path 2624" d="M-33.4-.173a1.78,1.78,0,0,1,.726.726c.013.239.018.479.019.718l0,.464q0,.256,0,.512t0,.537q0,.73.008,1.46,0,.762.009,1.524.009,1.444.017,2.888.009,1.644.019,3.287.021,3.381.039,6.763l.221-.23.293-.3.289-.3a1.37,1.37,0,0,1,1.193-.489,1.255,1.255,0,0,1,.908.59,1.228,1.228,0,0,1,.047.877,4.4,4.4,0,0,1-.9,1.129l-.221.224-.464.466c-.236.237-.469.476-.7.716l-.452.454-.209.217a2.131,2.131,0,0,1-1.043.644c-.8-.015-1.249-.566-1.785-1.1l-.216-.214-.449-.447q-.343-.342-.69-.68l-.437-.436-.209-.2A1.571,1.571,0,0,1-38,18.463c.238-.74.238-.74.575-1.029a1.976,1.976,0,0,1,1.119.061,11.033,11.033,0,0,1,1.331,1.21v-.282q.007-3.393.022-6.787.007-1.641.011-3.282,0-1.43.01-2.861,0-.757,0-1.515,0-.713.006-1.426,0-.262,0-.523c0-.238,0-.477,0-.715v-.4a1.606,1.606,0,0,1,.545-.963A1.528,1.528,0,0,1-33.4-.173Z" transform="translate(64.16 8)"/>
    <path id="Path_2625" data-name="Path 2625" d="M-69.954-.043c.969.28,1.855,1.537,2.543,2.228l.351.35.333.333.3.3a1.437,1.437,0,0,1,.408,1.193,1.255,1.255,0,0,1-.4.695l-.233.254-.269.284-.3.325q-.418.443-.845.878-.176.181-.35.365c-1.091,1.152-1.091,1.152-1.714,1.239-.6-.036-.6-.036-.9-.267a1.563,1.563,0,0,1-.3-1.066,2.675,2.675,0,0,1,.91-1.233l.484-.484h-.336q-1.568,0-3.135-.015-.806-.006-1.612-.008-.778,0-1.556-.009-.3,0-.593,0c-.277,0-.554,0-.832-.007l-.478,0A1.455,1.455,0,0,1-79.5,4.628a.993.993,0,0,1-.076-.484l0-.234a1.743,1.743,0,0,1,.685-.855,3.321,3.321,0,0,1,.891-.08l.265,0c.287,0,.575,0,.862,0l.6-.006c.525,0,1.05-.006,1.575-.007s1.072-.006,1.609-.01q1.577-.012,3.154-.013l-.26-.256-.337-.334-.336-.332a1.2,1.2,0,0,1-.443-.931,1.161,1.161,0,0,1,.287-.8A1.463,1.463,0,0,1-69.954-.043Z" transform="translate(78.921 51.24)"/>
    <path id="Path_2626" data-name="Path 2626" d="M-33.841-.318a1.355,1.355,0,0,1,.7,1.006A2.63,2.63,0,0,1-34.083,2.1l-.484.484.331,0q1.546.011,3.093.026.795.008,1.59.013.767,0,1.535.014l.585,0c.273,0,.547,0,.82.008l.471,0a1.782,1.782,0,0,1,1.013.411,1.745,1.745,0,0,1,.121,1.21,1.449,1.449,0,0,1-1.018.682l-.478,0-.265,0c-.287,0-.575,0-.862,0l-.6.006c-.525,0-1.05.006-1.575.007s-1.072.006-1.609.01q-1.577.012-3.154.013l.26.256.337.334.336.332a1.157,1.157,0,0,1,.435.931,1.259,1.259,0,0,1-.522,1.051A1.237,1.237,0,0,1-34.786,7.9a5.276,5.276,0,0,1-1.141-.941l-.208-.208-.43-.435q-.329-.334-.66-.666l-.419-.423-.2-.2A1.738,1.738,0,0,1-38.5,3.842a1.223,1.223,0,0,1,.406-.964l.233-.254q.779-.812,1.577-1.6l.35-.351L-35.6.337l.3-.3A1.527,1.527,0,0,1-33.841-.318Z" transform="translate(86.381 51.588)"/>
  </g>
</svg>
