<svg width="48" height="49" viewBox="0 0 48 49" fill="none" xmlns="http://www.w3.org/2000/svg">
<rect y="0.766846" width="48" height="48" rx="16" fill="white" fill-opacity="0.05"/>
<rect x="0.5" y="1.26685" width="47" height="47" rx="15.5" stroke="white" stroke-opacity="0.1"/>
<g clip-path="url(#clip0_3901_1679)">
<path d="M24 17.5676C26.6719 17.5676 26.9883 17.5793 28.0391 17.6262C29.0156 17.6692 29.543 17.8333 29.8945 17.97C30.3594 18.1497 30.6953 18.3684 31.043 18.7161C31.3945 19.0676 31.6094 19.3997 31.7891 19.8645C31.9258 20.2161 32.0898 20.7473 32.1328 21.72C32.1797 22.7747 32.1914 23.0911 32.1914 25.759C32.1914 28.4309 32.1797 28.7473 32.1328 29.7981C32.0898 30.7747 31.9258 31.302 31.7891 31.6536C31.6094 32.1184 31.3906 32.4543 31.043 32.802C30.6914 33.1536 30.3594 33.3684 29.8945 33.5481C29.543 33.6848 29.0117 33.8489 28.0391 33.8918C26.9844 33.9387 26.668 33.9504 24 33.9504C21.3281 33.9504 21.0117 33.9387 19.9609 33.8918C18.9844 33.8489 18.457 33.6848 18.1055 33.5481C17.6406 33.3684 17.3047 33.1497 16.957 32.802C16.6055 32.4504 16.3906 32.1184 16.2109 31.6536C16.0742 31.302 15.9102 30.7708 15.8672 29.7981C15.8203 28.7434 15.8086 28.427 15.8086 25.759C15.8086 23.0872 15.8203 22.7708 15.8672 21.72C15.9102 20.7434 16.0742 20.2161 16.2109 19.8645C16.3906 19.3997 16.6094 19.0637 16.957 18.7161C17.3086 18.3645 17.6406 18.1497 18.1055 17.97C18.457 17.8333 18.9883 17.6692 19.9609 17.6262C21.0117 17.5793 21.3281 17.5676 24 17.5676ZM24 15.7668C21.2852 15.7668 20.9453 15.7786 19.8789 15.8254C18.8164 15.8723 18.0859 16.0442 17.4531 16.2903C16.793 16.5481 16.2344 16.8879 15.6797 17.4465C15.1211 18.0012 14.7813 18.5598 14.5234 19.2161C14.2773 19.8528 14.1055 20.5793 14.0586 21.6418C14.0117 22.7122 14 23.052 14 25.7668C14 28.4817 14.0117 28.8215 14.0586 29.8879C14.1055 30.9504 14.2773 31.6809 14.5234 32.3137C14.7813 32.9739 15.1211 33.5325 15.6797 34.0872C16.2344 34.6418 16.793 34.9856 17.4492 35.2395C18.0859 35.4856 18.8125 35.6575 19.875 35.7043C20.9414 35.7512 21.2813 35.7629 23.9961 35.7629C26.7109 35.7629 27.0508 35.7512 28.1172 35.7043C29.1797 35.6575 29.9102 35.4856 30.543 35.2395C31.1992 34.9856 31.7578 34.6418 32.3125 34.0872C32.8672 33.5325 33.2109 32.9739 33.4648 32.3176C33.7109 31.6809 33.8828 30.9543 33.9297 29.8918C33.9766 28.8254 33.9883 28.4856 33.9883 25.7708C33.9883 23.0559 33.9766 22.7161 33.9297 21.6497C33.8828 20.5872 33.7109 19.8567 33.4648 19.2239C33.2188 18.5598 32.8789 18.0012 32.3203 17.4465C31.7656 16.8918 31.207 16.5481 30.5508 16.2942C29.9141 16.0481 29.1875 15.8762 28.125 15.8293C27.0547 15.7786 26.7148 15.7668 24 15.7668Z" fill="#ECE7E4"/>
<path d="M24 20.6304C21.1641 20.6304 18.8633 22.9312 18.8633 25.7671C18.8633 28.603 21.1641 30.9038 24 30.9038C26.8359 30.9038 29.1367 28.603 29.1367 25.7671C29.1367 22.9312 26.8359 20.6304 24 20.6304ZM24 29.0991C22.1602 29.0991 20.668 27.6069 20.668 25.7671C20.668 23.9272 22.1602 22.4351 24 22.4351C25.8398 22.4351 27.332 23.9272 27.332 25.7671C27.332 27.6069 25.8398 29.0991 24 29.0991Z" fill="#ECE7E4"/>
<path d="M30.5391 20.4265C30.5391 21.0906 30 21.6257 29.3398 21.6257C28.6758 21.6257 28.1406 21.0867 28.1406 20.4265C28.1406 19.7625 28.6797 19.2273 29.3398 19.2273C30 19.2273 30.5391 19.7664 30.5391 20.4265Z" fill="#ECE7E4"/>
</g>
<defs>
<clipPath id="clip0_3901_1679">
<rect width="20" height="20" fill="white" transform="translate(14 15.7668)"/>
</clipPath>
</defs>
</svg>
