<svg width="48" height="49" viewBox="0 0 48 49" fill="none" xmlns="http://www.w3.org/2000/svg">
<rect y="0.766846" width="48" height="48" rx="16" fill="white" fill-opacity="0.05"/>
<rect x="0.5" y="1.26685" width="47" height="47" rx="15.5" stroke="white" stroke-opacity="0.1"/>
<g clip-path="url(#clip0_3901_1686)">
<path d="M32.5186 15.7673H15.4756C14.6592 15.7673 13.999 16.4119 13.999 17.2087V34.322C13.999 35.1189 14.6592 35.7673 15.4756 35.7673H32.5186C33.335 35.7673 33.999 35.1189 33.999 34.3259V17.2087C33.999 16.4119 33.335 15.7673 32.5186 15.7673ZM19.9326 32.8103H16.9639V23.2634H19.9326V32.8103ZM18.4482 21.9626C17.4951 21.9626 16.7256 21.1931 16.7256 20.2439C16.7256 19.2947 17.4951 18.5251 18.4482 18.5251C19.3975 18.5251 20.167 19.2947 20.167 20.2439C20.167 21.1892 19.3975 21.9626 18.4482 21.9626ZM31.042 32.8103H28.0771V28.1697C28.0771 27.0642 28.0576 25.6384 26.5342 25.6384C24.9912 25.6384 24.7568 26.8455 24.7568 28.0916V32.8103H21.7959V23.2634H24.6396V24.5681H24.6787C25.0732 23.8181 26.042 23.0251 27.4834 23.0251C30.4873 23.0251 31.042 25.0017 31.042 27.572V32.8103Z" fill="#ECE7E4"/>
</g>
<defs>
<clipPath id="clip0_3901_1686">
<rect width="20" height="20" fill="white" transform="translate(14 15.7668)"/>
</clipPath>
</defs>
</svg>
