<svg xmlns="http://www.w3.org/2000/svg" width="394.5" height="194" viewBox="0 0 394.5 194">
  <g id="clutch-rating" transform="translate(-139 -2476)">
    <rect id="Rectangle_2046" data-name="Rectangle 2046" width="394.5" height="194" rx="20" transform="translate(139 2476)" fill="#f0f0f0"/>
    <g id="clutch-co-vector-logo" transform="translate(279 2512.666)">
      <path id="Path_2573" data-name="Path 2573" d="M177,235.9h5.259v32.471H177Z" transform="translate(-147.273 -235.9)" fill="#17313b"/>
      <path id="Path_2574" data-name="Path 2574" d="M239.406,302.762c0,5.031-4.116,5.488-5.488,5.488-3.2,0-3.659-2.973-3.659-4.573V291.1H225v12.348c0,2.973.915,5.717,2.744,7.317a8.277,8.277,0,0,0,6.174,2.287,7.984,7.984,0,0,0,5.488-1.829v1.829h5.259V291.1h-5.259Z" transform="translate(-186.126 -280.581)" fill="#17313b"/>
      <path id="Path_2575" data-name="Path 2575" d="M343.347,249.1h-5.259v8H334.2v5.031h3.887v16.922h5.259V262.134h3.887V257.1h-3.887Z" transform="translate(-274.517 -246.585)" fill="#17313b"/>
      <path id="Path_2576" data-name="Path 2576" d="M422.95,304.478a7.219,7.219,0,0,1-4.345,1.6,6.067,6.067,0,0,1-6.174-6.4,5.882,5.882,0,0,1,6.174-6.174,6.036,6.036,0,0,1,4.345,1.6l.686.686,3.659-3.43-.915-.686a11.725,11.725,0,0,0-7.775-2.973,11.2,11.2,0,1,0,0,22.41,11.725,11.725,0,0,0,7.775-2.973l.915-.686-3.659-3.659Z" transform="translate(-333.768 -278.638)" fill="#17313b"/>
      <path id="Path_2577" data-name="Path 2577" d="M541.007,248.248a7.257,7.257,0,0,0-5.717-2.287,6.877,6.877,0,0,0-5.031,1.829V235.9H525v32.471h5.259v-12.12c0-5.031,3.43-5.488,4.8-5.488,3.2,0,2.973,2.973,2.973,4.573v12.806h5.259V255.566C543.294,252.593,542.608,249.849,541.007,248.248Z" transform="translate(-428.958 -235.9)" fill="#17313b"/>
      <ellipse id="Ellipse_301" data-name="Ellipse 301" cx="3.659" cy="3.659" rx="3.659" ry="3.659" transform="translate(80.95 17.608)" fill="#ef4335"/>
      <path id="Path_2578" data-name="Path 2578" d="M43.41,265.2a10.722,10.722,0,0,1-7.546,2.973c-5.717,0-9.833-4.573-9.833-10.748s4.116-10.748,10.062-10.748a10.76,10.76,0,0,1,7.546,3.2l.686.686,3.43-3.43-.686-.686a15.4,15.4,0,0,0-10.976-4.573C27.4,241.648,21,248.508,21,257.426S27.4,273.2,35.864,273.2a15.018,15.018,0,0,0,10.976-4.573l.686-.686-3.43-3.43Z" transform="translate(-21 -240.733)" fill="#17313b"/>
    </g>
    <text id="Top_IT_Services_Company" data-name="Top IT Services Company" transform="translate(337 2643)" font-size="18" font-family="LibreFranklin-Regular, Libre Franklin"><tspan x="-106.308" y="0">Top IT Services Company</tspan></text>
    <g id="Group_5980" data-name="Group 5980" transform="translate(28.564 10.651)">
      <path id="Icon_awesome-star" data-name="Icon awesome-star" d="M14.532.976l-3.58,7.258L2.943,9.4a1.755,1.755,0,0,0-.97,2.993l5.794,5.646L6.4,26.017a1.753,1.753,0,0,0,2.544,1.847L16.105,24.1l7.165,3.766a1.755,1.755,0,0,0,2.544-1.847l-1.37-7.976,5.794-5.646a1.755,1.755,0,0,0-.97-2.993L21.258,8.234,17.679.976a1.756,1.756,0,0,0-3.147,0Z" transform="translate(168.43 2562.35)" fill="#fb0"/>
      <path id="Icon_awesome-star-2" data-name="Icon awesome-star" d="M14.532.976l-3.58,7.258L2.943,9.4a1.755,1.755,0,0,0-.97,2.993l5.794,5.646L6.4,26.017a1.753,1.753,0,0,0,2.544,1.847L16.105,24.1l7.165,3.766a1.755,1.755,0,0,0,2.544-1.847l-1.37-7.976,5.794-5.646a1.755,1.755,0,0,0-.97-2.993L21.258,8.234,17.679.976a1.756,1.756,0,0,0-3.147,0Z" transform="translate(216.43 2562.35)" fill="#fb0"/>
      <path id="Icon_awesome-star-3" data-name="Icon awesome-star" d="M14.532.976l-3.58,7.258L2.943,9.4a1.755,1.755,0,0,0-.97,2.993l5.794,5.646L6.4,26.017a1.753,1.753,0,0,0,2.544,1.847L16.105,24.1l7.165,3.766a1.755,1.755,0,0,0,2.544-1.847l-1.37-7.976,5.794-5.646a1.755,1.755,0,0,0-.97-2.993L21.258,8.234,17.679.976a1.756,1.756,0,0,0-3.147,0Z" transform="translate(264.43 2562.35)" fill="#fb0"/>
      <path id="Icon_awesome-star-4" data-name="Icon awesome-star" d="M14.532.976l-3.58,7.258L2.943,9.4a1.755,1.755,0,0,0-.97,2.993l5.794,5.646L6.4,26.017a1.753,1.753,0,0,0,2.544,1.847L16.105,24.1l7.165,3.766a1.755,1.755,0,0,0,2.544-1.847l-1.37-7.976,5.794-5.646a1.755,1.755,0,0,0-.97-2.993L21.258,8.234,17.679.976a1.756,1.756,0,0,0-3.147,0Z" transform="translate(312.43 2562.35)" fill="#fb0"/>
      <path id="Icon_awesome-star-5" data-name="Icon awesome-star" d="M14.532.976l-3.58,7.258L2.943,9.4a1.755,1.755,0,0,0-.97,2.993l5.794,5.646L6.4,26.017a1.753,1.753,0,0,0,2.544,1.847L16.105,24.1l7.165,3.766a1.755,1.755,0,0,0,2.544-1.847l-1.37-7.976,5.794-5.646a1.755,1.755,0,0,0-.97-2.993L21.258,8.234,17.679.976a1.756,1.756,0,0,0-3.147,0Z" transform="translate(360.43 2562.35)" fill="#fb0"/>
      <text id="_5.0" data-name="5.0" transform="translate(413 2583)" font-size="20" font-family="LibreFranklin-Bold, Libre Franklin" font-weight="700"><tspan x="0" y="0">5.0</tspan></text>
    </g>
  </g>
</svg>
