<svg xmlns="http://www.w3.org/2000/svg" xmlns:xlink="http://www.w3.org/1999/xlink" width="394.5" height="194" viewBox="0 0 394.5 194">
  <defs>
    <linearGradient id="linear-gradient" x1="-0.106" y1="-1.102" x2="4.495" y2="-1.102" gradientUnits="objectBoundingBox">
      <stop offset="0.73" stop-color="#2af4ff"/>
      <stop offset="0.884" stop-color="#2af4ff"/>
    </linearGradient>
    <linearGradient id="linear-gradient-2" x1="-1.293" y1="-1.077" x2="3.333" y2="-1.077" xlink:href="#linear-gradient"/>
    <linearGradient id="linear-gradient-3" x1="-2.713" y1="-1.062" x2="2.359" y2="-1.062" xlink:href="#linear-gradient"/>
    <linearGradient id="linear-gradient-4" x1="-3.708" y1="-1.102" x2="1.049" y2="-1.102" xlink:href="#linear-gradient"/>
  </defs>
  <g id="designrush-rating" transform="translate(-554 -2476)">
    <rect id="Rectangle_2053" data-name="Rectangle 2053" width="394.5" height="194" rx="20" transform="translate(554 2476)" fill="#f0f0f0"/>
    <g id="idP3ab4Xlb_1713966601270" transform="translate(636 2506.406)">
      <g id="Group_5666" data-name="Group 5666" transform="translate(40.296 20.901)">
        <path id="Path_2581" data-name="Path 2581" d="M42.8,22.7h7.72c6.214,0,10.545,4.237,10.545,9.7v.094c0,5.461-4.237,9.7-10.545,9.7H42.8V22.7m7.72,15.535c3.578,0,5.931-2.354,5.931-5.743V32.4A5.61,5.61,0,0,0,50.52,26.56h-3.3V38.235h3.3" transform="translate(-42.8 -22.323)"/>
        <path id="Path_2582" data-name="Path 2582" d="M66.2,22.7H81.17v3.766H70.625V30.42h9.321v3.766H70.625v4.048H81.358V42H66.294L66.2,22.7" transform="translate(-44.169 -22.323)"/>
        <path id="Path_2583" data-name="Path 2583" d="M84.9,39.253l2.636-3.013a9.411,9.411,0,0,0,5.931,2.354c1.789,0,2.824-.753,2.824-1.789v-.094c0-1.13-.753-1.695-3.954-2.448-3.954-1.036-6.59-2.071-6.59-5.931v-.094c0-3.484,2.824-5.837,6.967-5.837a11.507,11.507,0,0,1,7.344,2.448l-2.26,3.3A8.986,8.986,0,0,0,92.62,26.26c-1.695,0-2.542.753-2.542,1.695v-.094c0,1.224.847,1.695,4.237,2.542,4.048,1.036,6.214,2.448,6.214,5.743v.094c0,3.86-3.013,6.026-7.25,6.026A13.076,13.076,0,0,1,84.9,39.253" transform="translate(-45.263 -22.306)"/>
        <path id="Path_2584" data-name="Path 2584" d="M105.7,22.7h4.331V42.095H105.7V22.7" transform="translate(-46.48 -22.323)"/>
        <path id="Path_2585" data-name="Path 2585" d="M114.7,32.374A10.034,10.034,0,0,1,125.056,22.3a10.569,10.569,0,0,1,7.72,2.73l-2.73,3.3a7.34,7.34,0,0,0-5.178-1.977,5.814,5.814,0,0,0-5.649,6.026v.094a5.885,5.885,0,0,0,6.026,6.214,6.744,6.744,0,0,0,4.143-1.224v-2.73h-4.425V31.056h8.568v8.379a13.007,13.007,0,0,1-8.473,3.107c-6.214-.282-10.356-4.425-10.356-10.168" transform="translate(-47.006 -22.3)"/>
        <path id="Path_2586" data-name="Path 2586" d="M139.1,22.7h4.048l9.227,11.863V22.7h4.237V42.095H152.94l-9.6-12.334V42.095H139.1Z" transform="translate(-48.434 -22.323)"/>
      </g>
      <g id="Group_5667" data-name="Group 5667" transform="translate(153.088 20.995)">
        <path id="Path_2587" data-name="Path 2587" d="M162.788,22.7h9.038a8.132,8.132,0,0,1,5.743,1.977,6.034,6.034,0,0,1,1.695,4.425V29.2a6.059,6.059,0,0,1-4.237,6.026l4.8,6.873h-5.084l-4.237-6.214h-3.484v6.214H162.6V22.7h.188m8.756,9.321c2.165,0,3.3-1.13,3.3-2.73V29.2c0-1.789-1.224-2.73-3.389-2.73h-4.331v5.555h4.425" transform="translate(-162.6 -22.418)" fill="url(#linear-gradient)"/>
        <path id="Path_2588" data-name="Path 2588" d="M184.2,33.7V22.594h4.331V33.516c0,3.2,1.6,4.707,4.237,4.707S197,36.622,197,33.516V22.5h4.331V33.421c0,5.837-3.389,8.756-8.662,8.756S184.2,39.353,184.2,33.7" transform="translate(-163.864 -22.406)" fill="url(#linear-gradient-2)"/>
        <path id="Path_2589" data-name="Path 2589" d="M205.7,39.253l2.636-3.013a9.411,9.411,0,0,0,5.931,2.354c1.789,0,2.824-.753,2.824-1.789v-.094c0-1.13-.753-1.695-3.954-2.448-3.954-1.036-6.591-2.071-6.591-5.931v-.094c0-3.484,2.824-5.837,6.967-5.837a11.508,11.508,0,0,1,7.344,2.448l-2.26,3.3a8.986,8.986,0,0,0-5.178-1.883c-1.695,0-2.542.753-2.542,1.695v-.094c0,1.224.847,1.695,4.237,2.542,4.048,1.036,6.214,2.448,6.214,5.743v.094c0,3.86-3.013,6.026-7.25,6.026a13.265,13.265,0,0,1-8.379-3.013" transform="translate(-165.121 -22.4)" fill="url(#linear-gradient-3)"/>
        <path id="Path_2590" data-name="Path 2590" d="M226.3,22.7h4.331v7.72h8V22.7h4.331V42.095h-4.331v-7.72h-8v7.72H226.3V22.7" transform="translate(-166.327 -22.418)" fill="url(#linear-gradient-4)"/>
      </g>
      <path id="Path_2591" data-name="Path 2591" d="M15.441,33.621c-.094,0-.094-.094,0,0l-.471-.282-.094-.094L3.766,25.336a.092.092,0,0,1-.094-.094l-.188-.188-.094-.094H3.2L0,22.7l6.308.942a1.746,1.746,0,0,1,.659.188.948.948,0,0,1,.282.094,3.135,3.135,0,0,1,.565.282c.188.094.282.188.471.282.094.094.282.188.282.282.094.094.188.094.282.188q.282.141.282.282A5.681,5.681,0,0,0,9.886,26l4.99,7.061.094.094.471.471" transform="translate(0 -1.422)" fill="#2ad2ff"/>
      <path id="Path_2592" data-name="Path 2592" d="M15.446,44.543l-.471-.753-.094-.094L.1,22.7l3.2,2.26.565.377,11.11,7.909h.094l.377.282a.092.092,0,0,1,.094.094l.471-.377L30.981,22.7,15.917,43.79l-.094.094-.377.659" transform="translate(-0.006 -1.422)" fill="#2af4ff"/>
      <g id="Group_5668" data-name="Group 5668" transform="translate(11.204 21.184)">
        <path id="Path_2593" data-name="Path 2593" d="M16.137,30.126l-.471-.753-.094-.094L11.9,24.194l3.672.753h.094l.471.094.471-.094,3.578-.847-3.578,5.272v.094l-.471.659" transform="translate(-11.9 -22.688)" fill="#2ad2ff"/>
        <path id="Path_2594" data-name="Path 2594" d="M32.029,22.6l-4.707.659-1.789.282a5.167,5.167,0,0,0-3.578,2.165l-4.99,7.155-.094.094-.471.659.565-.565.094-.094-.659.659,12.71-9.038L32.029,22.6" transform="translate(-12.163 -22.6)" fill="#2ad2ff"/>
      </g>
      <g id="Group_5669" data-name="Group 5669" transform="translate(8.568 0)">
        <path id="Path_2595" data-name="Path 2595" d="M18.327,6.408c0,4.143-7.155,6.308-7.155,10.733a5.65,5.65,0,0,0,.659,3.013S9.1,17.518,9.1,14.693s2.636-7.061,2.636-7.061c0,1.883.753,2.448,1.506,2.542h.094c.847,0,1.318-.659,1.318-1.6S13.619,6.69,13.619,4.807c0-1.789,2.26-4.707,2.26-4.707a9.672,9.672,0,0,1,2.448,6.308" transform="translate(-9.1 -0.1)" fill="#2af4ff"/>
        <path id="Path_2596" data-name="Path 2596" d="M16.554,21.817A3.918,3.918,0,0,1,12.6,17.863v-.094c0-4.8,6.685-5.272,6.685-11.769a10.356,10.356,0,0,1,1.977,5.367c0,3.3-3.107,4.143-3.107,5.743,0,.659.282,1.13,1.224,1.13a.346.346,0,0,0,.282-.094,5.054,5.054,0,0,0,3.107-4.425c0,.094.941,8.1-6.214,8.1" transform="translate(-9.305 -0.445)" fill="#2af4ff"/>
      </g>
      <g id="Group_5670" data-name="Group 5670" transform="translate(1.224 0)">
        <path id="Path_2597" data-name="Path 2597" d="M19.643,18.239a.346.346,0,0,0,.282-.094c-.942.282-4.425,1.13-4.425-1.318,0-3.013,5.178-3.672,5.178-6.214A8.918,8.918,0,0,0,19.454,6a10.356,10.356,0,0,1,1.977,5.367c0,3.3-3.107,4.143-3.107,5.743a1.2,1.2,0,0,0,1.318,1.13" transform="translate(-2.131 -0.445)" fill="#2ad2ff"/>
        <path id="Path_2598" data-name="Path 2598" d="M16.7,8.1c0,2.354-3.013,2.165-3.2,2.071h.282c.847,0,1.318-.659,1.318-1.6S14.065,6.69,14.065,4.807c0-1.789,2.26-4.707,2.26-4.707A8.444,8.444,0,0,0,15.1,3.96c0,2.165,1.6,2.354,1.6,4.143" transform="translate(-2.014 -0.1)" fill="#2ad2ff"/>
        <path id="Path_2599" data-name="Path 2599" d="M14.771,52.054,12.7,50.642h2.542l.847-2.542.753,2.542h2.542l-2.071,1.412.753,2.448L16,53,13.83,54.5l.941-2.448" transform="translate(-1.967 -2.908)" fill="#2ad2ff"/>
        <path id="Path_2600" data-name="Path 2600" d="M26.271,52.054,24.2,50.642h2.542l.847-2.542.753,2.542h2.542l-2.071,1.412.753,2.448L27.5,53,25.33,54.5l.942-2.448" transform="translate(-2.64 -2.908)" fill="#2ad2ff"/>
        <path id="Path_2601" data-name="Path 2601" d="M3.371,52.054,1.3,50.642H3.842L4.689,48.1l.753,2.542H7.985L5.913,52.054,6.667,54.5,4.6,53,2.524,54.5l.847-2.448" transform="translate(-1.3 -2.908)" fill="#2ad2ff"/>
      </g>
    </g>
    <text id="Top_Mobile_App_Development_Company" data-name="Top Mobile App Development  Company" transform="translate(751 2643)" font-size="18" font-family="LibreFranklin-Regular, Libre Franklin"><tspan x="-167.931" y="0" xml:space="preserve">Top Mobile App Development  Company</tspan></text>
    <g id="Group_5981" data-name="Group 5981" transform="translate(443.314 10.651)">
      <path id="Icon_awesome-star" data-name="Icon awesome-star" d="M14.532.976l-3.58,7.258L2.943,9.4a1.755,1.755,0,0,0-.97,2.993l5.794,5.646L6.4,26.017a1.753,1.753,0,0,0,2.544,1.847L16.105,24.1l7.165,3.766a1.755,1.755,0,0,0,2.544-1.847l-1.37-7.976,5.794-5.646a1.755,1.755,0,0,0-.97-2.993L21.258,8.234,17.679.976a1.756,1.756,0,0,0-3.147,0Z" transform="translate(168.43 2562.35)" fill="#fb0"/>
      <path id="Icon_awesome-star-2" data-name="Icon awesome-star" d="M14.532.976l-3.58,7.258L2.943,9.4a1.755,1.755,0,0,0-.97,2.993l5.794,5.646L6.4,26.017a1.753,1.753,0,0,0,2.544,1.847L16.105,24.1l7.165,3.766a1.755,1.755,0,0,0,2.544-1.847l-1.37-7.976,5.794-5.646a1.755,1.755,0,0,0-.97-2.993L21.258,8.234,17.679.976a1.756,1.756,0,0,0-3.147,0Z" transform="translate(216.43 2562.35)" fill="#fb0"/>
      <path id="Icon_awesome-star-3" data-name="Icon awesome-star" d="M14.532.976l-3.58,7.258L2.943,9.4a1.755,1.755,0,0,0-.97,2.993l5.794,5.646L6.4,26.017a1.753,1.753,0,0,0,2.544,1.847L16.105,24.1l7.165,3.766a1.755,1.755,0,0,0,2.544-1.847l-1.37-7.976,5.794-5.646a1.755,1.755,0,0,0-.97-2.993L21.258,8.234,17.679.976a1.756,1.756,0,0,0-3.147,0Z" transform="translate(264.43 2562.35)" fill="#fb0"/>
      <path id="Icon_awesome-star-4" data-name="Icon awesome-star" d="M14.532.976l-3.58,7.258L2.943,9.4a1.755,1.755,0,0,0-.97,2.993l5.794,5.646L6.4,26.017a1.753,1.753,0,0,0,2.544,1.847L16.105,24.1l7.165,3.766a1.755,1.755,0,0,0,2.544-1.847l-1.37-7.976,5.794-5.646a1.755,1.755,0,0,0-.97-2.993L21.258,8.234,17.679.976a1.756,1.756,0,0,0-3.147,0Z" transform="translate(312.43 2562.35)" fill="#fb0"/>
      <path id="Icon_awesome-star-5" data-name="Icon awesome-star" d="M14.532.976l-3.58,7.258L2.943,9.4a1.755,1.755,0,0,0-.97,2.993l5.794,5.646L6.4,26.017a1.753,1.753,0,0,0,2.544,1.847L16.105,24.1l7.165,3.766a1.755,1.755,0,0,0,2.544-1.847l-1.37-7.976,5.794-5.646a1.755,1.755,0,0,0-.97-2.993L21.258,8.234,17.679.976a1.756,1.756,0,0,0-3.147,0Z" transform="translate(360.43 2562.35)" fill="#fb0"/>
      <text id="_5.0" data-name="5.0" transform="translate(413 2583)" font-size="20" font-family="LibreFranklin-Bold, Libre Franklin" font-weight="700"><tspan x="0" y="0">5.0</tspan></text>
    </g>
  </g>
</svg>
