<svg width="48" height="49" viewBox="0 0 48 49" fill="none" xmlns="http://www.w3.org/2000/svg">
<rect y="0.233154" width="48" height="48" rx="16" fill="white" fill-opacity="0.05"/>
<rect x="0.5" y="0.733154" width="47" height="47" rx="15.5" stroke="white" stroke-opacity="0.1"/>
<path d="M20.2918 33.359C27.8371 33.359 31.9652 27.1063 31.9652 21.6856C31.9652 21.5098 31.9613 21.3301 31.9535 21.1543C32.7566 20.5736 33.4496 19.8542 34 19.0301C33.2521 19.3628 32.458 19.5802 31.6449 19.6746C32.5011 19.1614 33.1421 18.3552 33.4492 17.4055C32.6438 17.8828 31.763 18.2195 30.8445 18.4012C30.2257 17.7436 29.4075 17.3083 28.5164 17.1624C27.6253 17.0165 26.711 17.1682 25.9148 17.5941C25.1186 18.02 24.4848 18.6963 24.1115 19.5184C23.7382 20.3406 23.6462 21.2629 23.8496 22.1426C22.2187 22.0608 20.6233 21.6371 19.1667 20.8991C17.71 20.1611 16.4247 19.1252 15.3941 17.8586C14.8703 18.7617 14.71 19.8304 14.9459 20.8474C15.1817 21.8645 15.7959 22.7535 16.6637 23.334C16.0122 23.3133 15.375 23.1379 14.8047 22.8223V22.8731C14.8041 23.8208 15.1317 24.7395 15.7319 25.473C16.3321 26.2065 17.1678 26.7095 18.0969 26.8965C17.4934 27.0616 16.86 27.0857 16.2457 26.9668C16.5079 27.7819 17.018 28.4948 17.7048 29.006C18.3916 29.5172 19.2209 29.8012 20.077 29.8184C18.6237 30.9599 16.8285 31.5791 14.9805 31.5762C14.6527 31.5757 14.3253 31.5556 14 31.516C15.8774 32.7205 18.0613 33.3602 20.2918 33.359Z" fill="#ECE7E4"/>
</svg>
