<svg xmlns="http://www.w3.org/2000/svg" width="57" height="57" viewBox="0 0 57 57">
  <g id="linkdein" transform="translate(-327 -2059)">
    <circle id="Ellipse_331" data-name="Ellipse 331" cx="28.5" cy="28.5" r="28.5" transform="translate(327 2059)" fill="#f4f4f4"/>
    <path id="Icon_awesome-linkedin-in" data-name="Icon awesome-linkedin-in" d="M4.685,20.932H.346V6.957h4.34ZM2.513,5.051A2.525,2.525,0,1,1,5.026,2.514,2.534,2.534,0,0,1,2.513,5.051ZM20.927,20.932H16.6v-6.8c0-1.621-.033-3.7-2.256-3.7-2.256,0-2.6,1.761-2.6,3.584v6.919H7.4V6.957h4.162V8.863h.061a4.56,4.56,0,0,1,4.106-2.257c4.392,0,5.2,2.892,5.2,6.649v7.676Z" transform="translate(345 2076.999)"/>
  </g>
</svg>
