<svg xmlns="http://www.w3.org/2000/svg" width="57" height="57" viewBox="0 0 57 57">
  <g id="twitter" transform="translate(-252 -2059)">
    <circle id="Ellipse_330" data-name="Ellipse 330" cx="28.5" cy="28.5" r="28.5" transform="translate(252 2059)" fill="#f4f4f4"/>
    <path id="Icon_awesome-twitter" data-name="Icon awesome-twitter" d="M26.055,9.259c.018.258.018.516.018.774,0,7.868-5.989,16.934-16.934,16.934A16.819,16.819,0,0,1,0,24.295a12.313,12.313,0,0,0,1.437.074,11.92,11.92,0,0,0,7.389-2.543A5.962,5.962,0,0,1,3.261,17.7a7.505,7.505,0,0,0,1.124.092,6.3,6.3,0,0,0,1.566-.2,5.953,5.953,0,0,1-4.773-5.841v-.074a5.994,5.994,0,0,0,2.69.755,5.961,5.961,0,0,1-1.843-7.96A16.918,16.918,0,0,0,14.3,10.7a6.719,6.719,0,0,1-.147-1.364,5.957,5.957,0,0,1,10.3-4.072,11.718,11.718,0,0,0,3.777-1.437A5.936,5.936,0,0,1,25.613,7.1a11.932,11.932,0,0,0,3.427-.921,12.794,12.794,0,0,1-2.985,3.077Z" transform="translate(266 2072.619)"/>
  </g>
</svg>
